<?xml version="1.0" encoding="utf-8"?>
<svg version="1.1" id="Layer_1" xmlns="http://www.w3.org/2000/svg" x="0px" y="0px" width="100px" viewBox="0 0 100 100" enable-background="new 0 0 100 100" xmlns:bx="https://boxy-svg.com" height="100px"><defs><bx:export><bx:file format="svg" path="cake.svg"/></bx:export></defs><ellipse style="fill: rgb(252, 224, 162);" cx="49.881" cy="49.699" rx="36.696" ry="36.696"/><path style="fill: rgb(135, 185, 235); stroke: rgb(77, 49, 45);" d="M 24.194 66.289 L 74.88 66.352 C 74.88 66.352 75.191 69.091 73.51 70.524 C 71.829 71.956 70.77 72.143 70.77 72.143 L 28.303 72.267 C 28.303 72.267 27.058 72.018 25.564 70.337 C 24.07 68.656 24.131 66.227 24.194 66.289 Z"/><path style="fill: rgb(206, 134, 81); stroke: rgb(77, 49, 45);" d="M 28.116 66.255 L 28.116 52.805 C 28.116 52.805 28.178 51.933 29.112 51.061 C 30.046 50.189 30.42 50.003 30.42 50.003 L 67.718 49.941 C 67.718 49.941 69.275 50.003 70.147 50.937 C 71.019 51.871 71.143 52.182 71.143 52.182 L 71.081 66.191 L 28.116 66.255 Z"/><path style="fill: rgb(244, 146, 172); stroke: rgb(77, 49, 45);" d="M 30.297 56.665 C 28.658 55.26 28.366 53.552 28.366 53.552 C 28.366 53.552 28.054 52.119 28.988 51.123 C 29.922 50.127 30.794 49.877 30.794 49.877 L 67.968 49.94 C 67.968 49.94 69.276 50.251 70.085 50.936 C 70.894 51.621 71.299 52.628 71.299 52.628 C 71.299 52.628 70.934 55.223 69.774 56.664 C 68.329 58.459 62.787 58.314 60.676 57.068 C 58.467 55.764 57.071 53.8 57.071 53.8 C 57.071 53.8 56.063 55.816 54.709 56.948 C 52.951 58.417 46.362 58.297 45.053 57.225 C 43.51 55.962 42.003 53.8 42.003 53.8 C 42.003 53.8 41.049 55.691 39.338 56.795 C 36.819 58.421 31.864 58.008 30.297 56.665 Z"/><path style="fill: rgb(206, 134, 81); stroke: rgb(77, 49, 45);" d="M 33.087 49.769 L 33.03 39.38 C 33.03 39.38 33.315 38.695 34.114 37.839 C 34.913 36.983 35.37 36.869 35.37 36.869 L 63.568 36.755 C 63.568 36.755 64.367 37.097 65.223 37.896 C 66.079 38.695 66.137 39.38 66.137 39.38 L 66.137 49.598 L 33.087 49.769 Z"/><path style="fill: rgb(244, 146, 172); stroke: rgb(77, 49, 45);" d="M 33.087 39.456 C 33.087 39.456 33.144 38.6 33.943 37.915 C 34.742 37.23 35.313 36.888 35.313 36.888 L 63.511 36.831 C 63.511 36.831 64.823 37.287 65.394 37.858 C 65.965 38.429 66.308 39.228 66.308 39.228 C 66.308 39.228 66.08 41.34 65.452 42.14 C 64.824 42.94 60.143 43.338 58.546 42.311 C 56.949 41.284 56.09 39.913 56.09 39.913 C 56.09 39.913 55.576 41.283 54.321 42.253 C 53.066 43.223 46.786 43.053 45.417 42.082 C 44.746 41.606 43.117 39.795 43.117 39.795 C 43.117 39.795 41.769 41.317 40.792 42.197 C 39.714 43.167 34.399 43.053 33.657 42.311 C 32.915 41.569 33.087 39.513 33.087 39.456 Z"/><path style="fill: rgb(216, 216, 216); stroke: rgb(77, 49, 45);" d="M 37.338 36.569 L 37.452 29.098 L 42.304 29.093 L 42.252 36.678 L 37.338 36.569 Z"/><path style="fill: rgb(252, 201, 56); stroke: rgb(77, 49, 45);" d="M 38.263 28.912 C 38.263 28.912 36.752 27.817 36.752 25.212 C 36.752 22.606 39.931 19.896 39.931 19.896 C 39.931 19.896 43.006 22.866 43.059 25.42 C 43.112 27.974 41.547 28.912 41.547 28.912 L 38.263 28.912 Z"/><path style="fill: rgb(232, 62, 83); stroke: rgb(77, 49, 45);" d="M 39.045 28.912 C 39.045 28.912 38.472 28.338 38.524 27.557 C 38.576 26.775 39.879 24.689 39.879 24.689 C 39.879 24.689 41.339 26.566 41.391 27.347 C 41.443 28.13 40.922 28.912 40.922 28.912 L 39.045 28.912 Z"/><path style="fill: rgb(216, 216, 216); stroke: rgb(77, 49, 45);" d="M 47.293 36.569 L 47.407 29.098 L 52.259 29.093 L 52.207 36.678 L 47.293 36.569 Z"/><path style="fill: rgb(252, 201, 56); stroke: rgb(77, 49, 45);" d="M 48.218 28.912 C 48.218 28.912 46.707 27.817 46.707 25.212 C 46.707 22.606 49.886 19.896 49.886 19.896 C 49.886 19.896 52.961 22.866 53.014 25.42 C 53.067 27.974 51.502 28.912 51.502 28.912 L 48.218 28.912 Z"/><path style="fill: rgb(232, 62, 83); stroke: rgb(77, 49, 45);" d="M 49 28.912 C 49 28.912 48.427 28.338 48.479 27.557 C 48.531 26.775 49.834 24.689 49.834 24.689 C 49.834 24.689 51.294 26.566 51.346 27.347 C 51.398 28.13 50.877 28.912 50.877 28.912 L 49 28.912 Z"/><path style="fill: rgb(216, 216, 216); stroke: rgb(77, 49, 45);" d="M 57.196 36.569 L 57.31 29.098 L 62.162 29.093 L 62.11 36.678 L 57.196 36.569 Z"/><path style="fill: rgb(252, 201, 56); stroke: rgb(77, 49, 45);" d="M 58.121 28.912 C 58.121 28.912 56.61 27.817 56.61 25.212 C 56.61 22.606 59.789 19.896 59.789 19.896 C 59.789 19.896 62.864 22.866 62.917 25.42 C 62.97 27.974 61.405 28.912 61.405 28.912 L 58.121 28.912 Z"/><path style="fill: rgb(232, 62, 83); stroke: rgb(77, 49, 45);" d="M 58.903 28.912 C 58.903 28.912 58.33 28.338 58.382 27.557 C 58.434 26.775 59.737 24.689 59.737 24.689 C 59.737 24.689 61.197 26.566 61.249 27.347 C 61.301 28.13 60.78 28.912 60.78 28.912 L 58.903 28.912 Z"/><ellipse style="fill: rgb(238, 62, 84);" cx="13.004" cy="28.805" rx="2.165" ry="2.165"/><ellipse style="fill: rgb(238, 62, 84);" cx="86.796" cy="23.722" rx="2.165" ry="2.165"/><ellipse style="fill: rgb(238, 62, 84);" cx="24.769" cy="86.502" rx="2.165" ry="2.165"/><ellipse style="fill: rgb(251, 205, 89);" cx="83.032" cy="14.896" rx="4.424" ry="4.424"/><ellipse style="fill: rgb(251, 205, 89);" cx="14.605" cy="63.087" rx="4.424" ry="4.424"/><ellipse style="fill: rgb(251, 205, 89);" cx="76.867" cy="12.712" rx="0.894" ry="0.894"/><ellipse style="fill: rgb(251, 205, 89);" cx="80.749" cy="75.715" rx="1.913" ry="1.913"/><ellipse style="fill: rgb(251, 205, 89);" cx="20.992" cy="66.869" rx="0.894" ry="0.894"/><ellipse style="fill: rgb(255, 255, 255);" cx="18.383" cy="53.441" rx="2.104" ry="2.104"/><ellipse style="fill: rgb(255, 255, 255);" cx="79.858" cy="34.222" rx="0.894" ry="0.894"/></svg>