<?xml version="1.0" encoding="utf-8"?>
<svg xmlns="http://www.w3.org/2000/svg" viewBox="0 0 500 500" width="48px" height="48px" xmlns:bx="https://boxy-svg.com"><defs><bx:export><bx:file format="svg" path="dress-code.svg"/></bx:export></defs><path style="stroke: rgb(59, 102, 203); stroke-width: 4px; fill: rgb(164, 201, 255);" d="M 220.944 17.39 L 263.252 17.39 L 339.247 91.222 L 338.69 190.868 L 269.932 191.075 C 269.932 191.075 250.448 158.787 235.417 117.036 C 220.386 75.285 220.387 58.584 220.387 58.584 L 220.944 17.39 Z"/><path style="stroke: rgb(59, 102, 203); stroke-width: 4px; fill: rgb(164, 201, 255); transform-box: fill-box; transform-origin: 50% 50%;" d="M 342.572 191.075 L 384.88 191.075 L 460.875 117.752 L 460.318 18.106 L 391.56 17.39 C 391.56 17.39 372.076 49.678 357.045 91.429 C 342.014 133.18 342.015 149.881 342.015 149.881 L 342.572 191.075 Z" transform="matrix(-1, 0, 0, -1, -0.000004, -0.000006)"/><path style="fill: rgb(224, 235, 252); stroke: rgb(59, 102, 203); stroke-width: 4px;" d="M 268.556 189.094 L 411.326 189.094 L 411.071 222.178 L 268.556 222.941 L 268.556 189.094 Z"/><path style="fill: rgb(164, 201, 255); stroke: rgb(59, 102, 203); stroke-width: 4px;" d="M 411.243 221.626 C 411.243 221.626 424.979 246.553 449.704 315.539 C 474.429 384.525 473.513 434.89 473.513 434.89 L 260.451 435.535 L 264.114 221.829 L 411.243 221.626 Z"/><path style="fill: rgb(70, 113, 198); stroke: rgb(59, 102, 202); stroke-width: 5px;" d="M 36.355 219.146 L 35.131 470.161 C 35.131 470.161 34.315 473.426 37.988 477.916 C 41.661 482.406 45.743 481.997 45.743 481.997 L 271.861 481.181 C 271.861 481.181 273.902 480.773 275.943 478.324 C 277.984 475.875 278.799 473.426 278.799 473.426 L 279.616 217.105 C 279.616 217.105 279.207 210.166 269.411 204.452 C 259.615 198.738 244.922 198.738 244.922 198.738 L 71.048 198.33 C 71.048 198.33 57.987 196.289 47.375 204.452 C 36.763 212.615 37.172 219.146 36.355 219.146 Z"/><path style="fill: rgb(70, 113, 198); stroke: rgb(59, 102, 203); stroke-width: 5px;" d="M 90.232 201.187 L 52.273 201.187 C 52.273 201.187 48.328 203.633 53.482 213.717 C 60.138 226.741 80.482 257.993 82.885 266.083 C 84.945 273.016 83.293 278.736 83.293 278.736 L 59.62 278.328 C 59.62 278.328 58.397 280.777 60.437 288.124 C 62.477 295.471 159.21 412.611 159.21 412.611 L 159.21 347.714 L 90.232 201.187 Z"/><path style="fill: rgb(70, 113, 198); stroke: rgb(59, 102, 203); stroke-width: 5px; transform-box: fill-box; transform-origin: 50% 50%;" d="M 199.618 413.652 L 161.659 413.652 C 161.659 413.652 157.714 411.206 162.868 401.122 C 169.524 388.098 189.868 356.846 192.271 348.756 C 194.331 341.823 192.679 336.103 192.679 336.103 L 169.006 336.511 C 169.006 336.511 167.783 334.062 169.823 326.715 C 171.863 319.368 268.596 202.228 268.596 202.228 L 268.596 267.125 L 199.618 413.652 Z" transform="matrix(-1, 0, 0, -1, 0, -0.000002)"/><path style="fill: rgb(216, 216, 216); stroke-width: 5px; stroke: rgb(59, 102, 203);" d="M 159.618 409.863 L 160.027 480.065"/><path style="stroke: rgb(59, 102, 203); stroke-width: 4px; fill: rgb(224, 235, 252);" d="M 91.355 157.922 L 91.864 202.411 L 160.026 345.265 L 237.168 199.554 L 235.943 158.33 C 235.943 158.33 215.536 153.433 195.128 159.555 C 174.72 165.677 160.026 173.432 160.026 173.432 C 160.026 173.432 153.088 165.677 128.19 159.555 C 103.292 153.433 91.355 157.922 91.355 157.922 Z"/><path style="fill: rgb(249, 167, 167); stroke: rgb(59, 102, 203); stroke-width: 4px;" d="M 83.293 176.697 L 84.109 255.471 C 84.109 255.471 107.374 253.431 119.211 248.125 C 131.048 242.819 144.108 237.921 144.108 237.921 L 144.516 194.248 C 144.516 194.248 137.578 188.126 122.884 182.82 C 108.19 177.514 83.293 176.697 83.293 176.697 Z"/><path style="fill: rgb(249, 167, 167); stroke: rgb(59, 102, 203); stroke-width: 4px; transform-box: fill-box; transform-origin: 50% 50%;" d="M 184.108 255.471 L 184.924 176.697 C 184.924 176.697 208.189 178.737 220.026 184.043 C 231.863 189.349 244.923 194.247 244.923 194.247 L 245.331 237.92 C 245.331 237.92 238.393 244.042 223.699 249.348 C 209.005 254.654 184.108 255.471 184.108 255.471 Z" transform="matrix(-1, 0, 0, -1, 0.000041, -0.000011)"/><path style="stroke: rgb(59, 102, 203); stroke-width: 4px; fill: rgb(249, 167, 167);" d="M 144.516 193.432 C 144.516 193.432 153.904 190.575 164.108 190.575 C 174.312 190.575 183.699 195.064 183.699 195.064 L 184.107 237.513 C 184.107 237.513 174.312 240.37 165.332 240.37 C 156.352 240.37 144.516 238.329 144.516 238.329 L 144.516 193.432 Z"/><path style="fill: rgb(216, 216, 216); stroke: rgb(59, 102, 203); stroke-width: 4px;" d="M 160.843 173.84 L 160.843 190.167"/></svg>