<svg xmlns="http://www.w3.org/2000/svg" width="100" height="100" viewBox="0 0 100 100">
      <polygon points="10,2 12,8 18,8 13,12 15,18 10,14 5,18 7,12 2,8 8,8" fill="white"/>
      <polygon points="50,20 52,26 58,26 53,30 55,36 50,32 45,36 47,30 42,26 48,26" fill="%23FFD700"/>
      <polygon points="80,60 82,66 88,66 83,70 85,76 80,72 75,76 77,70 72,66 78,66" fill="%234682B4"/>
      <polygon points="30,80 32,86 38,86 33,90 35,96 30,92 25,96 27,90 22,86 28,86" fill="%2350C878"/>
      <polygon points="90,10 92,16 98,16 93,20 95,26 90,22 85,26 87,20 82,16 88,16" fill="%23C0C0C0"/>
    </svg>